# xmcd CD database file
#
# Track frame offsets:
#	150
#	13495
#	28465
#	43525
#	56250
#	69570
#	84215
#	98885
#	112540
#	122770
#	136750
#	150255
#	163215
#	176775
#
# Disc length: 2530 seconds
#
# Revision: 6
# Processed by: cddbd v1.5PL3 Copyright (c) Steve Scherf et al.
# Submitted via: CDex 1.51
#
DISCID=ae09e00e
DTITLE=Billie Holiday - Jazz Masters (100 ans de Jazz)
DYEAR=1996
DGENRE=Jazz
TTITLE0=Let's do it (Porter)
TTITLE1=Georgia on my mind (Gorrell - Carmichael)
TTITLE2=Love me or leave me (Donaldson - Khan)
TTITLE3=St. Louis blues (Handy)
TTITLE4=I cover the  waterfront (Heyman - Green)
TTITLE5=Solitude (Ellington - Mills - De Lange)
TTITLE6=Fine and mellow (Hollyday - Marks)
TTITLE7=Night and day (Porter)
TTITLE8=Romance in the dark (Coslow - Nelson)
TTITLE9=The man I love (Gershwin - Gershwin)
TTITLE10=Body and soul (Heyman - Sour - Eyton - Green)
TTITLE11=A fine romance (Fields - Kern)
TTITLE12=All of me (Simons - Marks)
TTITLE13=Summertime (Heyward - Gershwin)
EXTD=YEAR: 1996
EXTT0=
EXTT1=
EXTT2=
EXTT3=
EXTT4=
EXTT5=
EXTT6=
EXTT7=
EXTT8=
EXTT9=
EXTT10=
EXTT11=
EXTT12=
EXTT13=
PLAYORDER=
